<?xml version='1.0' encoding='utf-8'?>
<svg xmlns="http://www.w3.org/2000/svg" version="1.1" width="600px" height="976px" viewBox="0 0 600 976"> <g id="layer1"> <g> <g style="fill:rgb(185,209,237); fill-opacity:1.0; stroke-linejoin: miter"> <path d="M205.1326,449.1372L158.91425,643.66003L27.056046,647.74097L29.77475,695.35144L498.75482,698.07214C491.0683,693.7677,483.38177,689.4633,468.8819,648.42755C454.38202,607.3918,433.0688,529.6248,411.75565,451.85785 Z"/> </g> <g style="fill:rgb(0,0,0); fill-opacity:0.33333334; stroke-linejoin: miter"> <path d="M464.38727,635.4597L421.6538,637.4366L421.65802,637.4366Q421.63037,640.0087,421.73486,642.6518Q422.02734,648.4364,423.72726,654.97565Q423.9044,656.4809,427.32013,665.337Q429.59573,670.82434,435.3948,683.45544Q436.96585,686.99036,438.2303,690.2805Q439.8261,694.32446,440.54398,697.73444L377.30402,697.36755L377.30023,697.36755Q378.96045,706.02985,381.52765,709.67633Q383.69577,713.26886,386.45514,715.22595Q390.94604,718.13513,395.01855,718.6476Q403.02576,719.6977,409.83093,719.6977Q418.67166,719.6977,425.4837,717.9254Q435.09732,715.26996,437.978,711.3897Q439.2287,709.96533,440.0159,708.1742L440.66415,706.27875Q441.18494,704.2853,441.1037,701.8495Q441.00458,699.9225,440.54398,697.7345L440.54837,697.7345L498.75482,698.07214Q484.08356,693.24695,468.8819,648.42755Q466.93182,643.1627,464.3919,635.4597 Z"/> </g> <g style="fill:rgb(0,0,0); fill-opacity:0.2627451; stroke-linejoin: miter"> <path d="M375.75397,639.55994L272.42096,644.34015L255.16437,645.1384L255.16692,645.1384Q256.26627,649.3566,256.52338,653.1969Q256.1978,661.1309,254.9732,662.19745Q252.23909,667.4953,246.3927,671.0337Q240.54636,674.572,234.05948,676.73376Q230.15497,678.17523,217.75237,681.50415Q214.92628,682.4222,214.7446,682.594L200.58588,693.05853Q197.89322,694.8906,195.66989,696.31384L195.67183,696.31384L377.30023,697.36755Q376.05228,690.8563,375.31677,681.51117Q373.91843,663.7733,375.75772,639.55994 Z"/> </g> <g style="fill:rgb(0,0,0); fill-opacity:0.3137255; stroke-linejoin: miter"> <path d="M174.1978,648.884L27.508808,655.6698L29.77475,695.35144L123.02834,695.89246L123.028366,695.89246Q122.96972,695.76355,122.94133,695.64465Q121.936226,692.6871,122.88248,691.87274Q123.6065,690.5306,125.14047,689.21295Q125.59063,688.54456,130.93352,685.29584Q146.65405,676.9035,146.94334,676.22925Q152.6065,672.3064,156.55638,668.3308Q159.23495,665.6819,161.69598,663.02625L174.1978,648.884 Z"/> </g> <g style="fill:rgb(0,0,0); fill-opacity:1.0; stroke-linejoin: miter"> <path d="M123.028366,695.89246L123.028366,695.89246Q123.77805,697.54,129.47151,700.81714Q134.99043,703.727,144.16019,705.9926Q152.51257,707.9284,159.37085,707.951Q159.57297,707.9523,159.7744,707.9523Q165.79857,707.9523,171.21704,706.8236Q178.36798,705.6672,189.40485,700.0027Q191.84161,698.7644,195.66988,696.31384L195.66989,696.31384L123.029594,695.89246 Z"/> </g> <g style="fill:rgb(251,241,109); fill-opacity:1.0; stroke-linejoin: miter"> <path d="M236.28055,596.5324L242.86774,624.51373L193.26212,635.94836C194.50311,632.54474,195.74408,629.14105,196.2295,623.39856C196.71492,617.656,196.44476,609.5745,196.1746,601.4931 Z"/> </g> <g style="fill:rgb(0,0,0); fill-opacity:1.0; stroke-linejoin: miter"> <path d="M244.05292,618.51337C252.04117,635.02563,260.02945,651.53796,254.9732,662.19745C249.91695,672.857,231.81622,677.6637,222.91705,680.06354C214.01788,682.4634,214.32027,682.4564,210.02525,685.9291C205.73026,689.4018,196.83788,696.3542,186.9574,701.2711C177.07695,706.18805,166.20842,709.06964,152.92288,707.5448C149.79822,707.18616,146.53986,706.5838,143.36482,705.80066C133.04016,703.2539,123.596634,698.7953,122.496895,694.5891C121.058975,689.0895,133.88564,684.02155,142.79625,678.833C151.70686,673.6444,156.70143,668.33527,161.69598,663.0262L189.69292,631.35565L197.72682,628.6758L221.17387,626.4271 Z"/> </g> <g style="fill:rgb(0,0,0); fill-opacity:1.0; stroke-linejoin: miter"> <path d="M422.7636,623.50604C421.53723,634.1041,420.3108,644.70215,424.71402,658.3186C429.11725,671.935,439.15005,688.5697,440.8488,699.2904C442.54752,710.0111,435.91214,714.8176,427.5962,717.3414C419.28024,719.86505,409.28372,720.1059,400.18558,719.30725C398.06918,719.1215,396.00146,718.8795,394.02142,718.4463C387.48938,717.0173,381.912,713.5077,378.69336,703.0732C374.49915,689.4757,374.31042,664.1186,375.08594,648.5624C375.86145,633.0061,377.60126,627.2507,379.34103,621.4952 Z"/> </g> </g> <g style="fill:rgb(251,241,109); fill-opacity:1.0; stroke-linejoin: miter"> <path d="M424.3661,599.51355L423.9408,600.3082Q421.10065,605.3143,419.96252,610.5193Q418.8918,615.0221,418.37744,627.4448L383.00482,624.57056Q385.92456,613.9336,388.02856,591.3684Q417.35007,593.59515,424.25546,595.1522Q425.7591,595.49176,426.57297,595.84235Q427.31693,596.0122,427.7763,596.9138Q427.9378,597.8202,424.3661,599.51355"/> </g> <g style="fill:rgb(116,130,191); fill-opacity:1.0; stroke-linejoin: miter"> <path d="M389.19534,99.85121Q386.7996,99.85121,384.35428,99.87488Q337.45206,101.167366,302.19537,107.50461Q284.56705,110.67323,269.8501,115.10306Q235.60516,127.28114,232.24986,131.23018L230.78542,132.15298Q216.8556,139.28174,214.18428,172.16098Q214.21915,187.04318,216.21877,200.58476Q232.09451,280.77298,231.16068,285.30008Q233.58368,316.87384,227.32043,328.44943Q223.4438,340.61053,201.73215,362.72742Q195.78763,368.20026,189.30255,373.27698Q146.8496,404.30402,138.38889,411.0782Q126.484886,420.5598,118.26738,429.41724Q107.26735,441.93903,117.14935,452.3813Q136.85443,467.52728,274.19037,472.63025Q306.2046,473.25833,333.58078,473.25833Q375.14584,473.25833,406.01923,471.8105Q431.62308,470.6098,449.87357,468.41327Q463.5946,467.93744,488.07983,459.5833Q493.9709,455.7807,493.39362,449.4662L483.7424,415.8241Q481.55606,402.38806,482.7998,386.13837L505.28055,258.57358Q509.33655,234.66557,511.13394,190.95334Q512.1421,152.84927,497.70203,130.88116Q492.7338,123.79519,484.37622,118.32736Q476.01868,112.859535,464.2718,109.00986L451.6776,105.56471Q426.4201,99.85121,389.19534,99.85121 Z"/> </g> <g style="fill:rgb(0,0,0); fill-opacity:0.08235294; stroke-linejoin: miter"> <path d="M394.71503,99.88344L391.16757,114.75914L376.97446,174.27615L375.81738,179.1283L375.81738,179.12831L342.7359,317.85126L342.73575,317.85126Q342.7341,317.85132,342.73245,317.85135L342.73587,317.85135L341.3283,323.75378L340.07748,328.999L313.51498,440.38538L314.48495,450.57706L316.63815,473.20117L316.64142,473.20117Q325.32214,473.25833,333.58078,473.25833Q359.72583,473.25833,381.64063,472.68546L381.64444,472.68546L380.44232,499.19138L380.44235,499.19138L423.87915,496.15878L423.8834,496.15878Q423.88336,496.15863,423.8833,496.15848L454.88214,493.99426L458.48236,467.51685L458.47778,467.51685Q470.5064,465.5792,488.07983,459.5833Q493.9709,455.7807,493.39362,449.4662L483.7424,415.8241Q481.55606,402.38806,482.7998,386.13837L505.28055,258.57358Q509.33655,234.66557,511.13394,190.95334Q512.1421,152.84927,497.70203,130.88116Q492.7338,123.79519,484.37622,118.32736Q476.01868,112.859535,464.2718,109.00986L451.6776,105.56471Q428.317,100.280304,394.71915,99.88344 Z"/> </g> <g style="fill:rgb(254,241,188); fill-opacity:1.0; stroke-linejoin: miter"> <path d="M265.77856,224.80411L283.32455,266.3755L300.8705,307.94684L318.27042,305.94928L287.691,231.02814L265.77856,224.80411"/> </g> <g style="fill:rgb(254,241,188); fill-opacity:1.0; stroke-linejoin: miter"> <path d="M267.63593,218.3092L270.7756,224.27435L273.91525,230.23949L244.45898,321.73282L225.22476,272.32022L267.63593,218.3092"/> </g> <g style="fill:rgb(15,8,1); fill-opacity:1.0; stroke-linejoin: miter"> <path d="M242.26694,49.982773L241.78664,49.609207Q239.15918,47.51348,237.27592,46.789036Q236.3901,46.311497,232.38351,45.867012Q231.4535,45.677807,231.0134,45.080086Q230.03966,43.20275,233.45949,36.17011Q227.38025,36.90164,226.31392,35.593872Q225.43542,33.750244,231.45714,27.068092Q224.61742,31.050156,225.02257,28.13686Q229.13947,18.70512,233.39613,16.97368Q229.19981,12.401459,232.20607,8.373341Q233.09564,7.405056,234.09999,8.109287L237.71101,12.487776Q238.49115,13.226507,239.1019,12.604141Q240.26196,11.338644,241.45576,5.4290466L244.57793,1.3467932L248.70148,-1.6281357Q250.92012,-1.7897577,251.7596,-2.7621164Q252.42929,-3.12179,254.36134,-7.830161Q254.87473,-8.794223,255.57419,-9.1981735Q256.56546,-9.598236,257.61734,-8.930568L261.94168,-5.6945953Q262.7256,-5.1494884,263.3872,-5.219165L266.63513,-6.804916L273.26947,-7.530656L275.40643,-8.16317Q276.25317,-8.37801,280.13562,-11.966498Q281.1877,-12.741166,282.64374,-13.254998Q284.46802,-14.014568,288.77625,-13.955201Q298.82242,-13.70411,299.3135,-4.641982L303.6074,-9.959436Q304.95584,-11.194443,306.10553,-11.18412Q306.47083,-11.416103,308.45343,-10.278761Q314.50385,-4.685319,315.44824,-5.3156967Q316.73004,-4.9172974,320.86133,-9.64004Q321.68237,-10.273944,322.46216,-9.938299Q323.31042,-10.055468,327.69775,-1.2003355Q329.25723,0.7640772,329.85675,0.6063862Q330.8487,0.7327385,331.91467,0.0035429Q337.51434,-4.7695646,338.33743,-4.595806Q340.2229,-5.3087273,342.4077,-3.7561302Q345.4198,-1.8577013,353.3307,10.334993L354.87268,11.896545Q358.70676,14.27103,359.7074,15.544485Q362.59323,18.627827,364.06708,21.223534Q367.119,26.002903,368.7957,36.303448Q373.06744,39.693943,373.64468,42.00635L374.07828,44.416576L373.47815,51.551918L373.73624,53.400146Q373.95453,54.310272,377.31107,55.37365Q377.63086,55.63324,377.75473,56.08525L377.54105,58.036148Q372.93408,69.180664,373.5327,69.48991Q373.09647,70.94654,374.7389,76.36276L374.6576,78.16168L371.93945,85.42334L369.438,95.47639Q367.9328,100.974556,360.6527,111.28149L362.39282,120.06863L297.20975,102.213806L242.26694,49.982773"/> </g> <g style="fill:rgb(251,222,3); fill-opacity:1.0; stroke-linejoin: miter"> <path d="M302.56482,328.21188L206.68571,335.67288L191.3706,337.5903Q162.61667,341.18558,150.1286,348.9714Q138.1735,356.70023,137.4472,370.50467Q136.72603,379.6905,138.6494,390.4869Q162.26471,508.66913,167.1502,551.95886Q171.58974,586.89514,166.19391,609.6128L243.78716,598.8401Q240.37129,452.1558,219.45619,419.32123L219.45839,419.32123Q228.72536,420.5435,236.5798,420.5435Q242.49028,420.5435,247.60089,419.85138Q301.84402,408.75177,325.40765,407.64978Q367.6739,412.79694,383.86963,423.62158L376.3011,590.5038L451.6272,598.61176Q447.26422,560.92847,450.27975,527.84204L463.25543,432.41394L466.20557,419.42468Q475.01492,392.60654,475.9336,385.13156Q477.54553,369.67328,475.97134,366.9499Q474.77158,361.13397,471.232,356.02933L466.94485,351.18915Q461.96625,346.58163,453.77197,343.1593Q443.8608,337.14532,396.78574,332.0046Q353.40582,328.72318,302.56482,328.21188 Z"/> </g> <g style="fill:rgb(254,241,188); fill-opacity:1.0; stroke-linejoin: miter"> <path d="M361.07568,111.68322L280.13684,139.10638Q244.78424,142.64256,236.0646,146.69243Q226.95021,150.0885,217.9968,160.14539L196.27292,316.38556L255.58769,319.42892L246.50134,315.00476Q244.99942,313.4999,245.28572,312.0359L264.46765,231.55661Q265.26996,229.02986,267.88297,229.02986Q267.9406,229.02986,267.99915,229.0311Q270.05002,229.42773,270.66547,230.88818L303.78214,300.41916Q303.67587,302.34924,302.00705,303.2886L264.28183,319.87503L467.74512,330.11798Q473.23193,326.72388,474.07208,308.39188Q475.51736,276.9235,474.26215,238.36053Q471.6227,160.59326,463.5283,148.72952Q463.1128,147.46573,460.74094,144.72916L442.6018,130.44397Q437.86676,126.658745,424.6217,121.40334Q411.8682,116.045876,361.07568,111.68322 Z"/> </g> <g style="fill:rgb(253,205,166); fill-opacity:1.0; stroke-linejoin: miter"> <path d="M215.72433,298.81412L215.28969,298.8164Q201.48315,299.48407,198.95593,304.90805L195.61926,317.01547Q196.5158,325.44025,200.10141,338.04065L252.31854,361.25204L263.8006,388.9453L279.29764,396.2397Q302.34024,393.72855,309.4063,389.367L314.4189,385.23492L312.68768,381.59644L329.90686,359.53235L450.12433,348.55676Q458.6405,343.1294,459.76547,339.35382Q462.64145,333.1452,463.94858,321.1445L447.3238,301.07874L431.0385,299.87537L413.9963,302.28857L397.01007,306.44672Q379.08466,312.8411,369.40875,314.89468Q356.56757,317.7367,338.94403,317.92377Q336.02777,317.9495,333.15985,317.9495Q325.0931,317.9495,317.40894,317.7459Q311.89865,308.3173,309.20758,305.56534Q306.52298,302.50705,303.005,302.48776L301.8055,303.3854L260.30276,321.31827Q259.50726,321.29245,258.99362,321.04822L246.8711,315.26172Q247.46252,312.74762,231.44016,302.4955Q224.44482,298.81903,215.72433,298.81412 Z"/> </g> <g style="fill:rgb(253,205,166); fill-opacity:1.0; stroke-linejoin: miter"> <path d="M332.52786,218.27925L298.44147,165.61261L290.52466,140.41791Q267.58554,143.9037,261.982,144.28113Q255.33167,144.90225,253.76299,143.41362Q249.46542,138.78603,248.88893,135.79489Q248.03188,132.92465,249.46222,125.82948Q244.32732,122.69156,243.80841,120.53854Q242.92397,118.48978,245.25214,113.224014Q240.81616,109.47514,240.35237,107.17787Q239.57556,104.95607,241.53027,99.66672Q232.88326,98.81169,231.30736,96.15585Q230.52016,95.39026,231.80074,92.16084L238.517,81.03791Q240.14447,77.84777,241.53676,73.51907Q237.2498,65.23854,238.2211,59.31359Q238.92566,54.602264,240.81621,49.422394L246.96303,33.75452L268.84354,32.711224L277.2826,52.229332L290.3022,60.00052L294.3309,85.14026L302.1732,83.95491Q302.89288,69.8022,307.39444,68.2191Q321.69012,64.24715,326.1815,68.20873Q331.7411,71.31807,335.76947,95.541245L361.41595,116.9411Q367.8437,139.55789,363.20325,150.79596Q361.8376,155.86351,358.27286,165.04558L345.6421,189.41716L332.52786,218.27925"/> </g> <g style="fill:rgb(0,0,0); fill-opacity:0.2; stroke-linejoin: miter"> <path d="M295.4835,165.30746Q295.3588,165.31024,295.23322,165.32733L294.3368,165.6228L293.4202,166.24794L292.48523,167.17276Q291.5411,168.24742,290.5676,169.8016Q287.63242,174.70387,284.56503,181.76392L283.5475,184.03735L296.9026,173.45728L304.80435,181.14177Q301.5218,172.03534,299.5829,168.85783Q298.81,167.54285,298.01022,166.66771L297.202,165.93004L296.37692,165.46727L295.4835,165.30746 Z"/> </g> <g style="fill:rgb(0,0,0); fill-opacity:0.2; stroke-linejoin: miter"> <path d="M361.3789,167.53992L344.26395,204.75174L344.26395,204.75174L365.73544,176.259L382.69482,181.08562Q377.95294,174.36656,374.28452,172.21689Q370.8477,169.85132,361.3789,167.53992 Z"/> </g> <g style="fill:rgb(255,0,0); fill-opacity:0.047058824; stroke-linejoin: miter"> <path d="M291.4492,140.13263L292.98117,140.00636Q302.79977,139.5183,311.11743,135.548Q313.8129,134.4088,320.97058,129.67581Q326.12622,126.192375,335.9597,118.60002L298.7971,165.34906L291.4492,140.13263"/> </g> </g> </svg>