<?xml version="1.0" encoding="UTF-8"?>
<svg version="1.1" viewBox="0 0 600 976" xmlns="http://www.w3.org/2000/svg">
 <g fill="#5a514a">
  <path d="m437.62 524.04q-3.251 6.1548-0.14166 0.251m24.88-99.667q-28.672-2.3279-191.45 55.128l-6.9659 44.425-9.802 121.92 103.98 18.488 111.09-16.999-28.433-61.915q-8.1121-32.073-8.1379-42.294-0.22913-7.999 2.2067-13.72 32.217-54.66 42.681-69.921 2.9556-4.9683 5.1768-13.453 5.8996-21.293-19.906-21.653"/>
 </g>
 <g fill="#ffdba7">
  <path d="m395.26 348.28q-0.34887-0.1291-1.0127-0.0514-5.511 0.86742-9.4518 1.1206l-17.68 0.85994q-4.7767 0.2777-8.5278 0.67552-8.7679 0.93534-12.964 2.6541-9.9432 4.0561-3.274 16.001l22.045 4.0463q14.343-3.2826 19.339-5.413 7.6898-3.0642 10.072-7.4358 1.5492-2.663 1.9972-6.3229 0.41305-5.446-0.50394-6.118"/>
 </g>
 <g fill="#3a2b24">
  <path d="m409.6 340.58q-9.5332-0.07877-12.751 3.4471-2.5507 2.5914-4.1114 7.1553-1.3568 4.2343-0.23663 6.2813 0.46523 0.82406 1.2799 1.375l0.07962 0.05429q0.71793 0.50861 2.6432 1.2461l39.346 27.386q5.6105-13.552 6.1458-20.417 0.84135-10.077-2.3486-15.702-2.8883-5.2682-9.8999-7.7173-8.5319-2.9678-20.146-3.1087"/>
 </g>
 <g fill="#ffdba7">
  <path d="m395.75 356.32q-3.1371-0.06656-3.7814 1.4957-0.26345 0.72697-0.07262 1.7546 1.5632 5.3148 1.4325 5.8951 0.17088 1.9245-0.26566 3.7955-0.39013 1.6942-1.2796 3.3999-0.06093 0.4571-4.3802 6.5994-0.89917 1.5586-0.99521 2.7422-0.17437 2.2834 1.0974 3.4421 0.42854 0.36877 0.95756 0.47653 0.14301 0.11777 2.2341 0.04754 0.31847 0.00575 0.50317 0.32838 0.10026 0.27679-0.0103 0.81802-1.0258 3.5699-0.87232 3.9622-0.20004 0.47625 1.1299 2.227 0.17408 0.45406 0.05634 0.91739-0.12466 0.57904-0.71676 1.436-4.4773 5.5671-5.3033 7.3263-1.5235 2.7506-1.5999 5.2597-0.0693 4.0743 2.5981 6.7929 2.731 2.6263 6.973 2.5697 5.3019 0.20135 19.357-4.9639l24.178-3.3946q-2.7783-8.1323-2.821-11.863-0.05124-1.5633 0.24252-3.0873 1.687-6.507 1.6363-7.1692 0.2771-2.1037-0.00177-4.4144-0.68466-5.2295-3.4447-8.8686-2.0184-2.6264-5.0998-3.9107-1.1876-0.52395-2.8211-1.0019-0.8161-0.29175-6.6019-1.5554-1.3463-0.36621-1.7953-0.6868-0.48569-0.29004-0.70362-0.86158l-0.22384-2.3651q-0.15706-0.74096-0.47196-1.1921-0.7003-1.1566-2.9458-2.2257-7.9342-3.3253-16.15-3.7262"/>
 </g>
 <g fill="#526091">
  <path d="m269.28 424.62q-11.135 0.53271-19.758 11.963-3.0378 3.7014 4.2584 16.756 6.4298 12.036 14.873 23.856 8.3907 11.891 25.525 29.715 6.3723 13.009 11.125 18.009 7.7894 9.0949 21.784 8.8976 10.791-0.0513 21.56-3.7672 4.5829-1.67 6.646-3.616 0.8146-0.74027 1.3698-1.7384 0.36368-0.56266 0.95993-2.86 0.1777-0.39978 0.59445-0.65174 0.13938-0.4989 6.0629-0.8677 0.9686-0.16684 1.6958-0.7785 1.0732-0.8674 1.847-4.1042l5.3872-24.486-30.794-20.52q-1.2029-0.69155-2.5993-1.1885-2.6684-0.88544-4.2679 0.01147-0.5336 0.26685-1.2287 1.0379-2.7014 3.7089-3.224 4.0406-1.1267 1.0188-2.2272 1.2648-2.7704 0.63978-6.9949-2.0799-4.7243-2.9812-11.054-9.9493l-18.595-23.085q-4.4389-5.2906-7.859-8.4657-7.8858-7.5344-14.926-7.3912"/>
 </g>
 <g fill="#ffdba7">
  <path d="m298.7 501.91q-7.1341-0.5015-11.273 12.184-1.7926 5.3459-3.467 13.705-7.448 43.099-8.277 46.864-3.0102 15.83-5.1971 23.937-2.0218 7.5973-4.334 12.18-1.2271 2.9017-7.0155 10.177-0.91766 1.3833-1.1158 2.5872-0.4324 2.6629 4.2279 4.4527 4.7288 1.9762 17.067 4.3791 1.1113-0.06687 1.1405-1.015l-0.41105-4.7588q-0.0187-1.2514 0.5445-2.476 13.038-22.302 17.967-31.494 6.4619-11.887 10.379-20.729 5.6848-12.696 7.0077-22.111 1.2125-8.319-0.18509-15.504-0.40323-3.7616-6.1445-19.278l-1.6155-7.322q-2.0251-5.1575-9.2176-5.777"/>
 </g>
 <g fill="#ffdba7">
  <path d="m255.81 429.68q-5.0956 5.12-5.5458 7.4602-1.0418 3.1128 0.56951 8.6841 7.1327 20.62 19.004 32.092 4.519 4.3776 13.515 9.9325l21.537 11.088 16.962-7.0017-16.943-19.097q-4.9066-11.38-15.729-23.778 2.9658 1.583-0.54819-7.0144-3.1699-7.1212-7.4601-11.297-5.3107-4.9925-12.801-5.4308-7.5715-0.30237-12.511 4.3154"/>
 </g>
 <g fill="#011017">
  <path d="m302.87 493.76q-2.7401 2.8357-1.6252 4.3354 0.34381 0.50203 1.3977 0.84294l4.3654 0.71319q0.98797 0.19745 0.95691 0.48247-5.4048 2.6799-9.0423 6.7189-3.9114 4.3272-4.0077 7.5348-0.29176 4.6326 6.1103 9.1049 10.023 6.5037 25.037 6.7073 12.152-0.12026 19.215-7.3335 7.05-7.576 4.3464-12.32-0.98244-1.4197-3.287-2.4983-0.95932-0.58775-7.7029-2.6034-1.1484-0.42835-1.9479-1.0292-0.65387-0.49665-1.0501-1.1479l-1.0918-2.6512q-0.2882-0.59442-1.0451-1.3818l-6.0425-4.9183-5.9692-5.4852q-3.0463-2.0944-8.4378-0.73666-6.0095 1.719-10.154 5.6408"/>
 </g>
 <g fill="#1d2324">
  <path d="m342.28 364.02q-5.3324-0.58682 3.4715 17.506 16.453 32.895 26.236 44.947-1.927-0.186-5.2853 4.4291l-12.19 19.522q-1.9643 2.8976-3.8822 5.1835l-6.7796 7.5744q-1.834 2.3981-4.0062 7.3904l22.791 16.396 1.4087-2.9377 16.562-14.907 3.8556 0.39323q7.2542-5.4162 7.6161-5.1688 1.9469 0.02116 3.8402-0.3751 15.495-3.7692 18.67-3.8987 1.5495-0.54767 12.603 0.72244l13.397-1.5761q3.4023-0.18729 4.7648 0.46469 1.8493 0.68558 2.2835 3.4513 0.37219 0.27842-0.49469 9.8878 0.04063 2.7176 0.62106 3.9897 1.1436 2.9757 5.1273 0.9624 5.3533-3.122 6.7152-7.6394 0.28092-1.0514 0.24945-2.6017-0.94278-7.6691-0.49235-9.5837 0.15156-1.422 0.77437-3.7583 3.4482-10.821 3.6034-12.504 0.78589-3.9252 0.16467-7.4065-1.0519-6.2035-5.7836-12.302-0.74591-0.90283-2.1112-1.5093-12.299-3.9188-14.266-5.7326-1.3798-1.0972-1.2024-1.9617-0.12788-0.41803 1.3084-2.8428l0.02902-0.69312q-0.38202-0.77304-1.8186-1.0993-6.69-1.4378-16.593-0.5856-2.8913 0.29037-5.6941 1.0912l-10.701 3.9496q-3.1271 1.0044-6.8886 1.6766-9.0882 1.5703-13.002-0.43341-2.4359-1.2694-1.9195-5.28 0.32414-1.9127 1.0865-3.7072 0.93982-2.399 3.1781-5.6789 0.3497-0.65605 0.14504-1.3753-3.9321-7.1876-12.516-17.159-5.7657-6.5209-10.581-8.7561-1.6534-1.1512-12.987-3.998-11.231-4.7857-11.213-4.0636"/>
 </g>
 <g fill="#ffdba7">
  <path d="m446.35 460.03q-7.4033-4.3176-22.529-3.7018-2.3355 0.12763-4.6382 0.50589-8.2699 1.817-11.265 2.1631-2.3533 0.38791-11.391 1.075-1.5249 0.1527-2.9984 0.41797-4.1092 0.7145-7.8326 2.9423-4.0722 1.8473-17.399 15.733-7.6612 7.995-10.488 13.524-5.5157 11.142 3.2994 17.934 4.9543 2.8571 9.4969-1.4358 1.9077-1.8619 4.0498-5.342 9.8019-18.207 10.918-18.864 3.5416-4.7132 8.5873-6.6409 3.8997-1.5432 10.119-1.2007 3.516 0.12951 6.9673 0.48843l17.813 2.0791q4.6666 0.42917 8.6055 0.4198 8.0788-0.056 11.565-2.1406 4.5936-2.8463 3.8233-8.5701-1.1342-6.0017-6.5773-9.3122"/>
 </g>
 <g fill="#011017">
  <path d="m257.79 620.85q-2.7582 0.8531-4.2426 3.3157-0.59776 0.93333-1.1712 2.2178-2.9198 7.2308-3.6844 8.5693-1.4716 2.9003-3.0308 4.7845-1.2198 1.5-3.0711 3.0017-0.62122 0.58807-5.754 4.1655-0.98289 0.72564-1.7108 1.377-1.5704 1.3859-2.243 2.851-1.3393 3.1454 0.37211 6.5293 1.7725 3.3307 5.5878 5.1137 8.2156 3.6291 22.142 0.27304 17.262-4.836 20.667-11.05 0.6878-1.5105 0.47366-3.2935 0.1304-0.3277-1.5141-5.7854-0.27594-1.3148-0.27383-2.821-0.06154-2.7217 1.4034-8.2292l-23.922-11.006"/>
 </g>
 <g fill="#3a2b24">
  <path d="m423.61 367.48l-3.2381 0.02301-12.914 27.805-16.523-7.8529-0.70206 3.4182q5.1199 4.6632 4.2558 6.8859-0.19647 0.77121-1.3058 1.7246l-5.1652 3.5904q-1.3163 1.0059-2.0534 1.8816-1.7416 2.002-1.7942 4.7875 0.41309 5.9952 7.0806 6.2204 6.1884 0.14188 16.229-3.7887 6.2788-2.5744 8.9176-6.643 1.9239-2.785 2.6848-7.314 0.44443-1.1898 1.3501-15.743 0.32128-2.9903 0.85598-4.8237 0.69407-2.4115 1.9027-4.3404 0.46407-0.75557 1.1155-1.5867l2.2928-2.5768q0.32892-0.40243 0.36588-0.60897 0.35351-0.92118-3.2975-1.056"/>
 </g>
 <g fill="#3a2b24">
  <path d="m430.77 371.22q1.0566 3.2762 1.2591 4.9737 0.26351 1.9344-0.14078 3.5084-0.29665 1.2199-1.2078 2.5467-0.4794 0.69891-1.1406 1.4673l-2.4758 2.7523q-0.53138 0.67565-0.44676 0.95108 0.07273 0.28927 0.65311 0.39904l0.68649 0.08458q2.8232 0.09407 3.3288 0.20958 1.0862 0.15902 1.6989 0.56632 0.69419 0.45794 1.0894 1.3292 0.30787 0.5596 0.65095 2.5717 0.05209 0.20126 0.16022 0.27634 0.81536-0.0957 1.6056-4.7002 0.58429-3.4471 1.3205-13.505l-7.0224-3.4221"/>
 </g>
</svg>
